<svg width="20" height="20" viewBox="0 0 20 20" fill="none" xmlns="http://www.w3.org/2000/svg" aria-hidden="true" focusable="false">
  <path d="M5.78259 4.16645C5.78228 4.84504 5.37059 5.45569 4.74164 5.71044C4.11269 5.96521 3.39209 5.81321 2.91961 5.32613C2.44714 4.83904 2.31715 4.11413 2.59094 3.49323C2.86474 2.87233 3.48764 2.47942 4.16593 2.49978C5.06682 2.52682 5.783 3.26515 5.78259 4.16645ZM5.83259 7.06645H2.49926V17.4998H5.83259V7.06645ZM11.0993 7.06645H7.78259V17.4998H11.0659V12.0248C11.0659 8.97475 15.0409 8.69142 15.0409 12.0248V17.4998H18.3326V10.8914C18.3326 5.74978 12.4493 5.94144 11.0659 8.46642L11.0993 7.06645Z" fill="currentColor"/>
</svg>
